<?xml version="1.0" encoding="UTF-8"?><svg id="Layer_1" xmlns="http://www.w3.org/2000/svg" viewBox="0 0 500 500"><circle cx="250" cy="250" r="249.03" fill="#ffe3d9" stroke-width="0"/><path d="m250,149.37c32.78,0,36.66.13,49.6.72,11.97.55,18.47,2.55,22.79,4.23,5.73,2.23,9.82,4.89,14.11,9.18,4.3,4.3,6.96,8.38,9.18,14.11,1.68,4.33,3.68,10.82,4.23,22.79.59,12.94.71,16.83.71,49.6s-.13,36.66-.71,49.6c-.55,11.97-2.55,18.47-4.23,22.79-2.23,5.73-4.89,9.82-9.18,14.11-4.29,4.3-8.38,6.96-14.11,9.18-4.33,1.68-10.83,3.68-22.79,4.23-12.94.59-16.82.71-49.6.71s-36.66-.12-49.6-.71c-11.97-.55-18.47-2.55-22.79-4.23-5.73-2.23-9.82-4.89-14.11-9.18-4.3-4.29-6.96-8.38-9.18-14.11-1.68-4.32-3.68-10.83-4.23-22.79-.59-12.94-.72-16.83-.72-49.6s.13-36.66.72-49.6c.55-11.97,2.55-18.47,4.23-22.79,2.23-5.73,4.89-9.82,9.18-14.11,4.3-4.3,8.38-6.96,14.11-9.18,4.33-1.68,10.82-3.68,22.79-4.23,12.94-.59,16.83-.72,49.6-.72Zm0-22.12c-33.34,0-37.52.14-50.61.74-13.07.6-21.99,2.67-29.8,5.71-8.07,3.14-14.92,7.33-21.74,14.16-6.82,6.82-11.02,13.67-14.16,21.74-3.03,7.81-5.11,16.73-5.71,29.8-.6,13.09-.74,17.27-.74,50.61s.14,37.52.74,50.61c.6,13.06,2.67,21.99,5.71,29.8,3.14,8.07,7.33,14.92,14.16,21.74,6.82,6.82,13.67,11.02,21.74,14.16,7.81,3.03,16.73,5.11,29.8,5.71,13.09.6,17.27.74,50.61.74s37.52-.14,50.61-.74c13.07-.6,21.99-2.67,29.8-5.71,8.07-3.14,14.92-7.33,21.74-14.16,6.83-6.83,11.02-13.67,14.16-21.74,3.03-7.81,5.11-16.73,5.7-29.8.6-13.09.74-17.27.74-50.61s-.14-37.52-.74-50.61c-.6-13.07-2.67-21.99-5.7-29.8-3.14-8.07-7.33-14.92-14.16-21.74-6.82-6.82-13.67-11.02-21.74-14.16-7.81-3.03-16.73-5.11-29.8-5.71-13.09-.6-17.27-.74-50.61-.74Z" fill="#ff7342" stroke-width="0"/><path d="m250.05,187.02c-34.81,0-63.03,28.22-63.03,63.03s28.22,63.03,63.03,63.03,63.03-28.22,63.03-63.03-28.22-63.03-63.03-63.03Zm0,103.95c-22.6,0-40.92-18.32-40.92-40.92s18.32-40.92,40.92-40.92,40.92,18.32,40.92,40.92-18.32,40.92-40.92,40.92Z" fill="#ff7342" stroke-width="0"/><path d="m330.3,184.5c0,8.13-6.6,14.73-14.73,14.73s-14.73-6.6-14.73-14.73,6.59-14.73,14.73-14.73,14.73,6.59,14.73,14.73Z" fill="#ff7342" stroke-width="0"/></svg>