<?xml version="1.0" encoding="UTF-8"?><svg id="Layer_1" xmlns="http://www.w3.org/2000/svg" viewBox="0 0 500 500"><circle cx="250" cy="250" r="249.03" fill="#ffe3d9" stroke-width="0"/><path d="m180.49,159.26c0,13.9-10.59,25.15-27.14,25.15s-26.49-11.25-26.17-25.15c-.33-14.58,10.26-25.5,26.48-25.5s26.51,10.92,26.82,25.5Zm-51.98,206.96v-161.94h50.33v161.93h-50.33Z" fill="#ff7342" fill-rule="evenodd" stroke-width="0"/><path d="m219.18,255.96c0-20.2-.67-37.42-1.33-51.66h43.71l2.32,22.18h.99c6.62-10.27,23.18-25.82,50-25.82,33.11,0,57.94,21.86,57.94,69.52v96.05h-50.33v-89.74c0-20.87-7.28-35.1-25.49-35.1-13.91,0-22.18,9.6-25.49,18.87-1.33,3.32-1.99,7.94-1.99,12.59v93.39h-50.33v-110.28h-.02Z" fill="#ff7342" fill-rule="evenodd" stroke-width="0"/></svg>