<?xml version="1.0" encoding="UTF-8"?><svg id="Layer_1" xmlns="http://www.w3.org/2000/svg" viewBox="0 0 500 500"><circle cx="250" cy="250" r="249.03" fill="#ffe3d9" stroke-width="0"/><path d="m372.5,176.01c-9.01,3.9-18.7,6.52-28.87,7.7,10.38-6.06,18.35-15.65,22.1-27.07-9.7,5.61-20.47,9.68-31.91,11.88-9.17-9.51-22.24-15.46-36.69-15.46-27.76,0-50.26,21.91-50.26,48.94,0,3.83.45,7.57,1.31,11.16-41.78-2.04-78.81-21.52-103.6-51.13-4.33,7.23-6.8,15.63-6.8,24.6,0,16.98,8.86,31.96,22.36,40.73-8.25-.25-15.99-2.46-22.78-6.12v.61c0,23.72,17.34,43.49,40.32,48-4.21,1.11-8.66,1.72-13.24,1.72-3.24,0-6.39-.31-9.46-.88,6.39,19.44,24.96,33.59,46.96,33.99-17.2,13.12-38.87,20.95-62.42,20.95-4.07,0-8.07-.23-12-.69,22.24,13.88,48.66,21.99,77.05,21.99,92.45,0,143.01-74.58,143.01-139.24,0-2.12-.04-4.24-.15-6.33,9.83-6.92,18.36-15.54,25.09-25.35Z" fill="#ff7342" fill-rule="evenodd" stroke-width="0"/></svg>