<?xml version="1.0" encoding="UTF-8"?><svg id="Layer_1" xmlns="http://www.w3.org/2000/svg" viewBox="0 0 500 500"><circle cx="250" cy="250" r="249.03" fill="#ffe3d9" stroke-width="0"/><path d="m359.14,177.83c3.8,3.78,6.55,8.48,7.95,13.64,8.09,32.35,6.22,83.45.16,117.06-1.41,5.16-4.15,9.86-7.95,13.64-3.8,3.78-8.54,6.5-13.73,7.9-19.01,5.15-95.53,5.15-95.53,5.15,0,0-76.52,0-95.53-5.15-5.19-1.4-9.93-4.12-13.73-7.9-3.8-3.78-6.55-8.48-7.95-13.64-8.14-32.21-5.91-83.34-.16-116.9,1.41-5.16,4.15-9.86,7.95-13.64,3.8-3.78,8.54-6.5,13.73-7.9,19.01-5.15,95.53-5.31,95.53-5.31,0,0,76.52,0,95.53,5.15,5.19,1.4,9.93,4.12,13.73,7.9Zm-70.14,72.17l-63.48,36.52v-73.04l63.48,36.52Z" fill="#ff7342" fill-rule="evenodd" stroke-width="0"/></svg>