<svg width="802" height="600" viewBox="0 0 802 600" fill="none" xmlns="http://www.w3.org/2000/svg">
<path d="M616.631 0H185.369C83.1513 0 0 83.379 0 185.876V414.124C0 516.621 83.1513 600 185.369 600H383.995L307.543 501.636L307.262 501.26H185.369C137.446 501.26 98.4699 462.178 98.4699 414.124V185.876C98.4699 137.822 137.446 98.7395 185.369 98.7395H616.631C664.554 98.7395 703.53 137.822 703.53 185.876V414.124C703.53 462.178 664.554 501.26 616.631 501.26H494.738L418.005 600H630.544C721.894 600 802 513.145 802 414.124V185.876C802 83.379 718.849 0 616.631 0Z" fill="url(#paint0_linear_1081_15823)"/>
<defs>
<linearGradient id="paint0_linear_1081_15823" x1="652.627" y1="600" x2="652.627" y2="-22.1105" gradientUnits="userSpaceOnUse">
<stop stop-color="#FFB245"/>
<stop offset="1" stop-color="#FFB245" stop-opacity="0"/>
</linearGradient>
</defs>
</svg>
