<svg width="48" height="48" viewBox="0 0 48 48" fill="none" xmlns="http://www.w3.org/2000/svg">
<circle cx="24" cy="24" r="24" fill="#FEF6EA"/>
<path fill-rule="evenodd" clip-rule="evenodd" d="M24 10.6667C31.3638 10.6667 37.3333 16.6362 37.3333 24C37.3333 31.3638 31.3638 37.3334 24 37.3334C16.6362 37.3334 10.6666 31.3638 10.6666 24C10.6666 16.6362 16.6362 10.6667 24 10.6667ZM27.9632 25.3344H20.0367C20.1846 28.0057 20.7721 30.4377 21.6711 32.2355C22.5082 33.9099 23.4028 34.6667 24 34.6667C24.5971 34.6667 25.4917 33.9099 26.3289 32.2355C27.2278 30.4377 27.8153 28.0057 27.9632 25.3344ZM34.5839 25.3347L30.6336 25.335C30.4723 28.5802 29.7292 31.4831 28.6159 33.6203C31.8135 32.0822 34.1268 28.9967 34.5839 25.3347ZM17.3663 25.335L13.416 25.3347C13.8731 28.9967 16.1865 32.082 19.3848 33.6193C18.3404 31.6165 17.622 28.9401 17.4033 25.9394L17.3663 25.335ZM19.384 14.3797L19.3491 14.398C16.169 15.9411 13.8709 19.0176 13.4158 22.6665L17.3662 22.6663C17.5274 19.4206 18.2705 16.5173 19.384 14.3797ZM24 13.3334L23.8916 13.3412C23.2978 13.4256 22.459 14.1886 21.6711 15.7645C20.772 17.5626 20.1844 19.9951 20.0366 22.667H27.9633C27.8155 19.9951 27.2279 17.5626 26.3289 15.7645C25.4917 14.0901 24.5971 13.3334 24 13.3334ZM28.6151 14.3807L28.6452 14.4363C29.7425 16.5686 30.4741 19.4497 30.6337 22.6673L34.5841 22.6667C34.1274 19.0041 31.8138 15.9182 28.6151 14.3807Z" fill="#F5821F"/>
</svg>
