<?xml version="1.0" encoding="UTF-8"?>
<svg id="Layer_2" data-name="Layer 2" xmlns="http://www.w3.org/2000/svg" viewBox="0 0 1097.39 314.11">
  <defs>
    <style>
      .cls-1 {
        fill: #13317f;
      }

      .cls-1, .cls-2 {
        stroke-width: 0px;
      }

      .cls-2 {
        fill: #ff8a3b;
      }
    </style>
  </defs>
  <g id="Layer_1-2" data-name="Layer 1">
    <g>
      <path class="cls-1" d="m184,152c-19.85,0-36-16.15-36-36s16.15-36,36-36,36,16.15,36,36-16.15,36-36,36Zm0-56c-11.03,0-20,8.97-20,20s8.97,20,20,20,20-8.97,20-20-8.97-20-20-20Z"/>
      <path class="cls-1" d="m192,296h-16v-39.19c0-6.62,2.69-13.42,7.04-17.77,4.35-4.35,10.35-7.04,16.96-7.04,6.95,0,12.74,2.13,16.91,6.63,3.77,4.07,5.88,9.35,6.91,16.25.41,2.71,1.3,5.1,2.77,6.68s3.25,2.45,5.4,2.45,4.21-.9,5.65-2.35,2.35-4.11,2.35-6.32v-54.53c0-4.49-1-9.07-3.64-12.17s-6.88-4.64-11.36-4.64-8.48,1.31-13.26,2.97c-6.45,2.24-15.48,5.03-27.74,5.03s-21.31-2.79-27.76-5.03c-4.78-1.66-8.55-2.97-13.24-2.97s-8.64,1.46-11.36,4.64c-2.65,3.09-3.64,7.68-3.64,12.17v55.19h-16v-55.19c0-8.82,2.89-17.34,8.38-23.42,5.58-6.17,13.79-9.38,22.62-9.38,7.39,0,13.03,1.96,18.49,3.85,5.87,2.04,12.94,4.15,22.51,4.15s16.63-2.11,22.49-4.14c5.46-1.9,11.1-3.86,18.51-3.86,8.82,0,17.04,3.15,22.62,9.38,5.46,6.11,8.38,14.6,8.38,23.42v54.53c0,6.62-2.69,13.28-7.04,17.63-4.35,4.35-10.35,7.04-16.96,7.04s-12.69-2.3-16.89-6.78c-3.91-4.17-6.37-9.97-6.98-16.25-.25-2.56-1.22-5.06-2.62-6.58-1.41-1.52-3.3-2.39-5.51-2.39s-4.21.9-5.65,2.35-2.35,4.25-2.35,6.46v39.19Z"/>
      <g>
        <path class="cls-1" d="m452.34,87.95h-10.94v-6.7l.79.36c-1.44,2.5-3.36,4.37-5.76,5.62-2.4,1.25-5.26,1.87-8.57,1.87-3.5,0-6.73-.67-9.68-2.02-2.95-1.34-5.53-3.23-7.74-5.65-2.21-2.42-3.92-5.28-5.15-8.57-1.22-3.29-1.84-6.85-1.84-10.69s.66-7.46,1.98-10.73c1.32-3.26,3.17-6.11,5.54-8.53,2.38-2.42,5.18-4.3,8.42-5.62,3.24-1.32,6.78-1.98,10.62-1.98,4.13,0,8.02.85,11.66,2.56,3.65,1.7,6.65,4.04,9,7.02l-7.63,7.99c-1.78-2.3-3.74-4.03-5.9-5.18-2.16-1.15-4.54-1.73-7.13-1.73-2.74,0-5.16.68-7.27,2.05-2.11,1.37-3.76,3.26-4.93,5.69-1.18,2.42-1.76,5.24-1.76,8.46s.59,6.12,1.76,8.57c1.18,2.45,2.83,4.34,4.97,5.69,2.14,1.34,4.67,2.02,7.6,2.02,2.64,0,4.94-.6,6.91-1.8,1.97-1.2,3.55-3.02,4.75-5.47l-.72,2.81v-5.4h-12.1v-9.58h23.11v28.94Z"/>
        <path class="cls-1" d="m505.98,87.95h-33.98v-51.48h11.95v41.04h22.03v10.44Z"/>
        <path class="cls-1" d="m545.01,89.1c-3.84,0-7.37-.67-10.58-2.02-3.22-1.34-6-3.22-8.35-5.62-2.35-2.4-4.18-5.24-5.47-8.53-1.3-3.29-1.94-6.88-1.94-10.76s.65-7.46,1.94-10.73c1.3-3.26,3.12-6.1,5.47-8.5,2.35-2.4,5.14-4.27,8.35-5.62,3.21-1.34,6.74-2.02,10.58-2.02s7.35.67,10.55,2.02c3.19,1.34,5.96,3.22,8.32,5.62,2.35,2.4,4.18,5.23,5.47,8.5,1.3,3.26,1.94,6.84,1.94,10.73s-.65,7.48-1.94,10.76c-1.3,3.29-3.12,6.13-5.47,8.53-2.35,2.4-5.12,4.27-8.32,5.62-3.19,1.34-6.71,2.02-10.55,2.02Zm0-10.73c2.74,0,5.14-.7,7.2-2.09,2.06-1.39,3.67-3.31,4.82-5.76,1.15-2.45,1.73-5.23,1.73-8.35s-.58-5.89-1.73-8.32c-1.15-2.42-2.76-4.33-4.82-5.72-2.06-1.39-4.46-2.09-7.2-2.09s-5.08.7-7.16,2.09c-2.09,1.39-3.71,3.3-4.86,5.72-1.15,2.42-1.73,5.2-1.73,8.32s.58,5.9,1.73,8.35c1.15,2.45,2.77,4.37,4.86,5.76,2.09,1.39,4.47,2.09,7.16,2.09Z"/>
        <path class="cls-1" d="m590.51,87.95v-51.48h21.96c3.26,0,6.11.55,8.53,1.66,2.42,1.1,4.31,2.65,5.65,4.64,1.34,1.99,2.02,4.33,2.02,7.02,0,2.54-.67,4.8-2.02,6.77-1.34,1.97-3.23,3.5-5.65,4.61-2.42,1.1-5.27,1.66-8.53,1.66h-9.36v-3.82h9.29c3.65,0,6.84.56,9.58,1.69,2.74,1.13,4.87,2.72,6.41,4.79,1.54,2.06,2.3,4.51,2.3,7.34,0,3.02-.77,5.68-2.3,7.96-1.54,2.28-3.67,4.04-6.41,5.29-2.74,1.25-5.93,1.87-9.58,1.87h-21.89Zm11.95-10.01h10.01c1.92,0,3.43-.52,4.54-1.55,1.1-1.03,1.66-2.48,1.66-4.36,0-1.73-.55-3.08-1.66-4.07-1.1-.98-2.62-1.48-4.54-1.48h-10.73v-9.72h9.86c1.58,0,2.82-.48,3.71-1.44.89-.96,1.33-2.28,1.33-3.96,0-1.54-.44-2.74-1.33-3.6-.89-.86-2.12-1.3-3.71-1.3h-9.14v31.46Z"/>
        <path class="cls-1" d="m697.72,87.95h-12.96l-14.54-42.55h3.02l-14.54,42.55h-12.46l19.01-51.48h13.39l19.08,51.48Zm-10.66-9.5h-30.31v-10.15h30.31v10.15Z"/>
        <path class="cls-1" d="m749.49,87.95h-33.98v-51.48h11.95v41.04h22.03v10.44Z"/>
        <path class="cls-1" d="m442.19,175.53l7.63,7.99c-2.35,3.02-5.29,5.38-8.82,7.06-3.53,1.68-7.28,2.52-11.27,2.52s-7.37-.66-10.58-1.98c-3.22-1.32-6-3.17-8.35-5.54-2.35-2.38-4.16-5.22-5.44-8.53-1.27-3.31-1.91-6.94-1.91-10.87s.65-7.55,1.94-10.84c1.3-3.29,3.12-6.12,5.47-8.5,2.35-2.38,5.16-4.22,8.42-5.54,3.26-1.32,6.84-1.98,10.73-1.98s7.69.83,11.12,2.48c3.43,1.66,6.32,4.02,8.68,7.09l-7.63,7.99c-1.44-2.16-3.23-3.85-5.36-5.08-2.14-1.22-4.4-1.84-6.8-1.84-2.74,0-5.16.68-7.27,2.05-2.11,1.37-3.76,3.26-4.93,5.69-1.18,2.42-1.76,5.24-1.76,8.46s.59,6.05,1.76,8.5c1.18,2.45,2.81,4.36,4.9,5.72,2.09,1.37,4.52,2.05,7.31,2.05,2.4,0,4.67-.61,6.8-1.84,2.14-1.22,3.92-2.92,5.36-5.08Z"/>
        <path class="cls-1" d="m489.42,193.1c-3.84,0-7.37-.67-10.58-2.02-3.22-1.34-6-3.22-8.35-5.62-2.35-2.4-4.18-5.24-5.47-8.53-1.3-3.29-1.94-6.88-1.94-10.76s.65-7.46,1.94-10.73c1.3-3.26,3.12-6.1,5.47-8.5,2.35-2.4,5.14-4.27,8.35-5.62,3.22-1.34,6.74-2.02,10.58-2.02s7.35.67,10.55,2.02c3.19,1.34,5.96,3.22,8.32,5.62,2.35,2.4,4.18,5.23,5.47,8.5,1.3,3.26,1.94,6.84,1.94,10.73s-.65,7.48-1.94,10.76c-1.3,3.29-3.12,6.13-5.47,8.53-2.35,2.4-5.12,4.27-8.32,5.62-3.19,1.34-6.71,2.02-10.55,2.02Zm0-10.73c2.74,0,5.14-.7,7.2-2.09,2.06-1.39,3.67-3.31,4.82-5.76,1.15-2.45,1.73-5.23,1.73-8.35s-.58-5.89-1.73-8.32c-1.15-2.42-2.76-4.33-4.82-5.72-2.06-1.39-4.46-2.09-7.2-2.09s-5.08.7-7.16,2.09c-2.09,1.39-3.71,3.3-4.86,5.72-1.15,2.42-1.73,5.2-1.73,8.32s.58,5.9,1.73,8.35c1.15,2.45,2.77,4.37,4.86,5.76,2.09,1.39,4.48,2.09,7.16,2.09Z"/>
        <path class="cls-1" d="m568.91,191.95h-33.98v-51.48h11.95v41.04h22.03v10.44Z"/>
        <path class="cls-1" d="m607.94,193.1c-3.84,0-7.37-.67-10.58-2.02-3.22-1.34-6-3.22-8.35-5.62-2.35-2.4-4.18-5.24-5.47-8.53-1.3-3.29-1.94-6.88-1.94-10.76s.65-7.46,1.94-10.73c1.3-3.26,3.12-6.1,5.47-8.5,2.35-2.4,5.14-4.27,8.35-5.62,3.22-1.34,6.74-2.02,10.58-2.02s7.35.67,10.55,2.02c3.19,1.34,5.96,3.22,8.32,5.62,2.35,2.4,4.18,5.23,5.47,8.5,1.3,3.26,1.94,6.84,1.94,10.73s-.65,7.48-1.94,10.76c-1.3,3.29-3.12,6.13-5.47,8.53-2.35,2.4-5.12,4.27-8.32,5.62-3.19,1.34-6.71,2.02-10.55,2.02Zm0-10.73c2.74,0,5.14-.7,7.2-2.09,2.06-1.39,3.67-3.31,4.82-5.76,1.15-2.45,1.73-5.23,1.73-8.35s-.58-5.89-1.73-8.32c-1.15-2.42-2.76-4.33-4.82-5.72-2.06-1.39-4.46-2.09-7.2-2.09s-5.08.7-7.16,2.09c-2.09,1.39-3.71,3.3-4.86,5.72-1.15,2.42-1.73,5.2-1.73,8.32s.58,5.9,1.73,8.35c1.15,2.45,2.77,4.37,4.86,5.76,2.09,1.39,4.48,2.09,7.16,2.09Z"/>
        <path class="cls-1" d="m665.18,191.95h-11.74v-51.48h12.38l25.27,40.32h-5.26v-40.32h11.74v51.48h-12.38l-25.2-40.32h5.18v40.32Z"/>
        <path class="cls-1" d="m781.81,175.53l7.63,7.99c-2.35,3.02-5.29,5.38-8.82,7.06-3.53,1.68-7.28,2.52-11.27,2.52s-7.37-.66-10.58-1.98c-3.22-1.32-6-3.17-8.35-5.54-2.35-2.38-4.17-5.22-5.44-8.53-1.27-3.31-1.91-6.94-1.91-10.87s.65-7.55,1.94-10.84c1.3-3.29,3.12-6.12,5.47-8.5,2.35-2.38,5.16-4.22,8.42-5.54,3.26-1.32,6.84-1.98,10.73-1.98s7.69.83,11.12,2.48c3.43,1.66,6.32,4.02,8.68,7.09l-7.63,7.99c-1.44-2.16-3.23-3.85-5.36-5.08-2.14-1.22-4.4-1.84-6.8-1.84-2.74,0-5.16.68-7.27,2.05-2.11,1.37-3.76,3.26-4.93,5.69-1.18,2.42-1.76,5.24-1.76,8.46s.59,6.05,1.76,8.5c1.18,2.45,2.81,4.36,4.9,5.72,2.09,1.37,4.52,2.05,7.31,2.05,2.4,0,4.67-.61,6.8-1.84,2.14-1.22,3.92-2.92,5.36-5.08Z"/>
        <path class="cls-1" d="m853.46,191.95h-12.96l-14.54-42.55h3.02l-14.54,42.55h-12.46l19.01-51.48h13.39l19.08,51.48Zm-10.66-9.5h-30.31v-10.15h30.31v10.15Z"/>
        <path class="cls-1" d="m882.97,191.95h-11.74v-51.48h12.38l25.27,40.32h-5.26v-40.32h11.74v51.48h-12.38l-25.2-40.32h5.18v40.32Z"/>
        <path class="cls-1" d="m973.33,175.53l7.63,7.99c-2.35,3.02-5.29,5.38-8.82,7.06-3.53,1.68-7.28,2.52-11.27,2.52s-7.37-.66-10.58-1.98c-3.22-1.32-6-3.17-8.35-5.54-2.35-2.38-4.17-5.22-5.44-8.53-1.27-3.31-1.91-6.94-1.91-10.87s.65-7.55,1.94-10.84c1.3-3.29,3.12-6.12,5.47-8.5,2.35-2.38,5.16-4.22,8.42-5.54,3.26-1.32,6.84-1.98,10.73-1.98s7.69.83,11.12,2.48c3.43,1.66,6.32,4.02,8.68,7.09l-7.63,7.99c-1.44-2.16-3.23-3.85-5.36-5.08-2.14-1.22-4.4-1.84-6.8-1.84-2.74,0-5.16.68-7.27,2.05-2.11,1.37-3.76,3.26-4.93,5.69-1.18,2.42-1.76,5.24-1.76,8.46s.59,6.05,1.76,8.5c1.18,2.45,2.81,4.36,4.9,5.72,2.09,1.37,4.52,2.05,7.31,2.05,2.4,0,4.67-.61,6.8-1.84s3.92-2.92,5.36-5.08Z"/>
        <path class="cls-1" d="m1034.75,191.95h-35.42v-51.48h35.42v10.15h-23.47v31.18h23.47v10.15Zm-1.3-20.81h-22.9v-10.15h22.9v10.15Z"/>
        <path class="cls-1" d="m1065.57,191.95h-11.95v-51.48h20.3c3.6,0,6.78.7,9.54,2.09,2.76,1.39,4.91,3.32,6.44,5.8,1.54,2.47,2.3,5.34,2.3,8.6s-.77,6.14-2.3,8.64c-1.54,2.5-3.68,4.43-6.44,5.8-2.76,1.37-5.94,2.05-9.54,2.05h-9.07v-10.15h9.07c1.92,0,3.44-.58,4.57-1.73,1.13-1.15,1.69-2.69,1.69-4.61s-.56-3.52-1.69-4.64c-1.13-1.13-2.65-1.69-4.57-1.69h-8.35v41.33Zm31.82,0h-14.4l-16.06-23.98h13.61l16.85,23.98Z"/>
        <path class="cls-1" d="m453.5,295.95h-12.96l-14.54-42.55h3.02l-14.54,42.55h-12.46l19.01-51.48h13.39l19.08,51.48Zm-10.66-9.5h-30.31v-10.15h30.31v10.15Z"/>
        <path class="cls-1" d="m464.94,287.53l7.7-7.85c.96,1.39,2.24,2.64,3.85,3.74,1.61,1.1,3.38,1.96,5.33,2.56,1.94.6,3.9.9,5.87.9,2.69,0,4.8-.48,6.34-1.44,1.54-.96,2.3-2.26,2.3-3.89s-.79-3-2.38-3.96c-1.58-.96-4.2-1.73-7.85-2.3-6.38-.96-11.14-2.71-14.26-5.26-3.12-2.54-4.68-5.93-4.68-10.15,0-3.41.84-6.35,2.52-8.82,1.68-2.47,4.02-4.38,7.02-5.72,3-1.34,6.44-2.02,10.33-2.02,4.37,0,8.44.82,12.2,2.45,3.77,1.63,6.83,3.84,9.18,6.62l-7.49,7.85c-1.63-2.11-3.65-3.77-6.05-4.97-2.4-1.2-4.99-1.8-7.78-1.8-2.35,0-4.26.44-5.72,1.33-1.46.89-2.2,2.15-2.2,3.78,0,1.54.74,2.72,2.23,3.56,1.49.84,4.13,1.6,7.92,2.27,6.38,1.06,11.16,2.94,14.33,5.65,3.17,2.71,4.75,6.28,4.75,10.69,0,3.26-.86,6.13-2.59,8.6-1.73,2.47-4.17,4.38-7.31,5.72-3.14,1.34-6.85,2.02-11.12,2.02-4.61,0-8.87-.83-12.78-2.48-3.91-1.66-7.14-4.02-9.68-7.09Z"/>
        <path class="cls-1" d="m522.54,287.53l7.7-7.85c.96,1.39,2.24,2.64,3.85,3.74,1.61,1.1,3.38,1.96,5.33,2.56,1.94.6,3.9.9,5.87.9,2.69,0,4.8-.48,6.34-1.44,1.54-.96,2.3-2.26,2.3-3.89s-.79-3-2.38-3.96c-1.58-.96-4.2-1.73-7.85-2.3-6.38-.96-11.14-2.71-14.26-5.26-3.12-2.54-4.68-5.93-4.68-10.15,0-3.41.84-6.35,2.52-8.82,1.68-2.47,4.02-4.38,7.02-5.72,3-1.34,6.44-2.02,10.33-2.02,4.37,0,8.44.82,12.2,2.45,3.77,1.63,6.83,3.84,9.18,6.62l-7.49,7.85c-1.63-2.11-3.65-3.77-6.05-4.97-2.4-1.2-4.99-1.8-7.78-1.8-2.35,0-4.26.44-5.72,1.33-1.46.89-2.2,2.15-2.2,3.78,0,1.54.74,2.72,2.23,3.56,1.49.84,4.13,1.6,7.92,2.27,6.38,1.06,11.16,2.94,14.33,5.65,3.17,2.71,4.75,6.28,4.75,10.69,0,3.26-.86,6.13-2.59,8.6-1.73,2.47-4.17,4.38-7.31,5.72-3.14,1.34-6.85,2.02-11.12,2.02-4.61,0-8.87-.83-12.78-2.48-3.91-1.66-7.14-4.02-9.68-7.09Z"/>
        <path class="cls-1" d="m607.72,297.1c-3.84,0-7.37-.67-10.58-2.02-3.22-1.34-6-3.22-8.35-5.62-2.35-2.4-4.18-5.24-5.47-8.53-1.3-3.29-1.94-6.88-1.94-10.76s.65-7.46,1.94-10.73c1.3-3.26,3.12-6.1,5.47-8.5,2.35-2.4,5.14-4.27,8.35-5.62,3.22-1.34,6.74-2.02,10.58-2.02s7.36.67,10.55,2.02c3.19,1.34,5.96,3.22,8.32,5.62,2.35,2.4,4.18,5.23,5.47,8.5,1.3,3.26,1.94,6.84,1.94,10.73s-.65,7.48-1.94,10.76c-1.3,3.29-3.12,6.13-5.47,8.53-2.35,2.4-5.12,4.27-8.32,5.62-3.19,1.34-6.71,2.02-10.55,2.02Zm0-10.73c2.74,0,5.14-.7,7.2-2.09,2.06-1.39,3.67-3.31,4.82-5.76,1.15-2.45,1.73-5.23,1.73-8.35s-.58-5.89-1.73-8.32c-1.15-2.42-2.76-4.33-4.82-5.72-2.06-1.39-4.46-2.09-7.2-2.09s-5.08.7-7.16,2.09c-2.09,1.39-3.71,3.3-4.86,5.72-1.15,2.42-1.73,5.2-1.73,8.32s.58,5.9,1.73,8.35c1.15,2.45,2.77,4.37,4.86,5.76,2.09,1.39,4.48,2.09,7.16,2.09Z"/>
        <path class="cls-1" d="m689.73,279.53l7.63,7.99c-2.35,3.02-5.29,5.38-8.82,7.06-3.53,1.68-7.28,2.52-11.27,2.52s-7.37-.66-10.58-1.98c-3.22-1.32-6-3.17-8.35-5.54-2.35-2.38-4.16-5.22-5.44-8.53-1.27-3.31-1.91-6.94-1.91-10.87s.65-7.55,1.94-10.84c1.3-3.29,3.12-6.12,5.47-8.5,2.35-2.38,5.16-4.22,8.42-5.54,3.26-1.32,6.84-1.98,10.73-1.98s7.69.83,11.12,2.48c3.43,1.66,6.32,4.02,8.68,7.09l-7.63,7.99c-1.44-2.16-3.23-3.85-5.36-5.08-2.14-1.22-4.4-1.84-6.8-1.84-2.74,0-5.16.68-7.27,2.05-2.11,1.37-3.76,3.26-4.93,5.69-1.18,2.42-1.76,5.24-1.76,8.46s.59,6.05,1.76,8.5c1.18,2.45,2.81,4.36,4.9,5.72,2.09,1.37,4.52,2.05,7.31,2.05,2.4,0,4.67-.61,6.8-1.84,2.14-1.22,3.92-2.92,5.36-5.08Z"/>
        <path class="cls-1" d="m727.67,295.95h-11.95v-51.48h11.95v51.48Z"/>
        <path class="cls-1" d="m796.94,295.95h-12.96l-14.54-42.55h3.02l-14.54,42.55h-12.46l19.01-51.48h13.39l19.08,51.48Zm-10.66-9.5h-30.31v-10.15h30.31v10.15Z"/>
        <path class="cls-1" d="m846.18,254.77h-40.82v-10.3h40.82v10.3Zm-14.47,41.18h-11.88v-41.9h11.88v41.9Z"/>
        <path class="cls-1" d="m875.99,295.95h-11.95v-51.48h11.95v51.48Z"/>
        <path class="cls-1" d="m921.57,297.1c-3.84,0-7.37-.67-10.58-2.02-3.22-1.34-6-3.22-8.35-5.62-2.35-2.4-4.18-5.24-5.47-8.53-1.3-3.29-1.94-6.88-1.94-10.76s.65-7.46,1.94-10.73c1.3-3.26,3.12-6.1,5.47-8.5,2.35-2.4,5.14-4.27,8.35-5.62,3.21-1.34,6.74-2.02,10.58-2.02s7.35.67,10.55,2.02c3.19,1.34,5.96,3.22,8.32,5.62,2.35,2.4,4.18,5.23,5.47,8.5,1.3,3.26,1.94,6.84,1.94,10.73s-.65,7.48-1.94,10.76c-1.3,3.29-3.12,6.13-5.47,8.53-2.35,2.4-5.12,4.27-8.32,5.62-3.19,1.34-6.71,2.02-10.55,2.02Zm0-10.73c2.74,0,5.14-.7,7.2-2.09,2.06-1.39,3.67-3.31,4.82-5.76,1.15-2.45,1.73-5.23,1.73-8.35s-.58-5.89-1.73-8.32c-1.15-2.42-2.76-4.33-4.82-5.72-2.06-1.39-4.46-2.09-7.2-2.09s-5.08.7-7.16,2.09c-2.09,1.39-3.71,3.3-4.86,5.72-1.15,2.42-1.73,5.2-1.73,8.32s.58,5.9,1.73,8.35c1.15,2.45,2.77,4.37,4.86,5.76,2.09,1.39,4.47,2.09,7.16,2.09Z"/>
        <path class="cls-1" d="m978.81,295.95h-11.74v-51.48h12.38l25.27,40.32h-5.26v-40.32h11.74v51.48h-12.38l-25.2-40.32h5.18v40.32Z"/>
      </g>
      <path class="cls-2" d="m53.89,314.11C19.14,279.35,0,233.15,0,184S19.14,88.65,53.89,53.89C88.65,19.14,134.85,0,184,0s95.35,19.14,130.11,53.89l-11.31,11.31c-31.73-31.73-73.92-49.21-118.79-49.21s-87.06,17.47-118.79,49.21-49.21,73.92-49.21,118.79,17.48,87.06,49.21,118.79l-11.31,11.31Z"/>
    </g>
  </g>
</svg>