<svg width="657" height="132" viewBox="0 0 657 132" fill="none" xmlns="http://www.w3.org/2000/svg">
<g clip-path="url(#clip0_23_13511)">
<path d="M39.57 23.1799H85.57V2.17993H39.57C29.0786 2.19052 19.02 6.3629 11.6015 13.7814C4.18296 21.1999 0.0105893 31.2586 0 41.7499V90.3399C0.0105893 100.831 4.18296 110.89 11.6015 118.308C19.02 125.727 29.0786 129.899 39.57 129.91H81.98L65.65 108.97L65.59 108.89H39.59C34.6719 108.885 29.9567 106.929 26.479 103.451C23.0014 99.9733 21.0453 95.2581 21.04 90.3399V41.7299C21.0453 36.8153 22.9986 32.1031 26.4719 28.626C29.9453 25.1489 34.6553 23.1905 39.57 23.1799Z" fill="#FF7342"/>
<path d="M131.63 2.15991H85.6299V23.1599H131.63C136.549 23.1652 141.265 25.121 144.744 28.5983C148.224 32.0757 150.182 36.7908 150.19 41.7099V90.2999C150.182 95.219 148.224 99.9341 144.744 103.412C141.265 106.889 136.549 108.845 131.63 108.85H105.63L89.2499 129.85H134.62C154.12 129.85 171.22 111.36 171.22 90.2799V41.7299C171.209 31.2351 167.034 21.1734 159.611 13.7543C152.188 6.33523 142.125 2.16521 131.63 2.15991Z" fill="#FFB297"/>
<path d="M357.27 2.15991H378.27V129.69H357.27V2.15991Z" fill="#FF7342"/>
<path d="M464.14 0C489.14 0 510.3 12.76 521.62 32.34L503.47 42.75C495.21 29.1 481.74 20.3 464.14 20.3C438.81 20.3 419.41 40.6 419.41 65.93C419.41 91.26 438.81 111.55 464.14 111.55C481.74 111.55 495.21 102.75 503.47 89.1L521.62 99.52C510.3 119.09 489.11 131.85 464.14 131.85C446.796 131.636 430.235 124.597 418.046 112.257C405.857 99.9165 399.022 83.2701 399.022 65.925C399.022 48.5799 405.857 31.9335 418.046 19.5934C430.235 7.25329 446.796 0.213612 464.14 0Z" fill="#FF7342"/>
<path d="M598.63 0C623.63 0 644.79 12.76 656.11 32.34L637.97 42.75C629.7 29.1 616.23 20.3 598.63 20.3C573.3 20.3 553.9 40.6 553.9 65.93C553.9 91.26 573.3 111.55 598.63 111.55C616.23 111.55 629.7 102.75 637.97 89.1L656.11 99.52C644.79 119.09 623.6 131.85 598.63 131.85C581.286 131.636 564.725 124.597 552.536 112.257C540.347 99.9165 533.512 83.2701 533.512 65.925C533.512 48.5799 540.347 31.9335 552.536 19.5934C564.725 7.25329 581.286 0.213612 598.63 0Z" fill="#FF7342"/>
<path d="M277.86 131.85C285.901 131.811 293.834 129.999 301.094 126.542C308.354 123.085 314.762 118.068 319.86 111.85C332 96.9399 332 79.8499 332 67.4399V2.15991H311V67.2999C311 78.5399 311 89.4399 303.58 98.5899C300.48 102.413 296.566 105.495 292.124 107.613C287.681 109.73 282.821 110.829 277.9 110.829C272.978 110.829 268.119 109.73 263.676 107.613C259.233 105.495 255.319 102.413 252.22 98.5899C244.77 89.4399 244.8 78.5899 244.8 67.2999V2.15991H223.8V67.4299C223.8 79.8799 223.8 96.9299 235.94 111.84C241.038 118.058 247.446 123.075 254.706 126.532C261.965 129.989 269.899 131.801 277.94 131.84L277.86 131.85Z" fill="#FF7342"/>
</g>
<defs>
<clipPath id="clip0_23_13511">
<rect width="656.11" height="131.84" fill="white"/>
</clipPath>
</defs>
</svg>
