<?xml version="1.0" encoding="utf-8"?>
<!-- Generator: Adobe Illustrator 22.1.0, SVG Export Plug-In . SVG Version: 6.00 Build 0)  -->
<svg version="1.1" id="Layer_1" xmlns="http://www.w3.org/2000/svg" xmlns:xlink="http://www.w3.org/1999/xlink" x="0px" y="0px"
	 viewBox="0 0 297 77" style="enable-background:new 0 0 297 77;" xml:space="preserve">
<style type="text/css">
	.st0{stroke:#000000;stroke-width:0.5;stroke-miterlimit:10;}
	.st1{fill:#298842;}
	.st2{fill:#20A8E0;}
	.st3{fill:#EC2328;}
</style>
<g id="Layer_2_1_">
</g>
<g>
	<path class="st0" d="M14.8,6.9c1.3,0,2.6,0.2,3.8,0.5s2.2,0.9,3.2,1.6c0.9,0.7,1.6,1.6,2.2,2.7c0.5,1.1,0.8,2.4,0.8,3.9
		s-0.3,2.8-0.8,3.9c-0.5,1.1-1.3,2-2.2,2.8c-0.9,0.7-2,1.3-3.2,1.7s-2.5,0.5-3.8,0.5H7.2v10.1c0,0.3-0.1,0.6-0.3,0.8
		c-0.2,0.2-0.5,0.3-0.8,0.3H4.4c-0.3,0-0.6-0.1-0.8-0.3s-0.3-0.5-0.3-0.8V7.9c0-0.3,0.1-0.6,0.3-0.8c0.2-0.2,0.5-0.3,0.8-0.3h10.4
		V6.9z M7.2,20.9h7.4c2,0,3.5-0.4,4.6-1.3c1.1-0.9,1.6-2.2,1.6-3.9c0-1.8-0.5-3-1.6-3.8s-2.6-1.2-4.6-1.2H7.2V20.9z"/>
	<path class="st0" d="M42.7,14.4c0.3,0,0.6,0.1,0.8,0.3s0.3,0.5,0.3,0.8v1.3c0,0.3-0.1,0.6-0.3,0.8s-0.5,0.3-0.8,0.3h-2.4
		c-3.2,0-4.7,1.6-4.7,4.7v12c0,0.3-0.1,0.6-0.3,0.8s-0.5,0.3-0.8,0.3H33c-0.3,0-0.6-0.1-0.8-0.3s-0.3-0.5-0.3-0.8V15.4
		c0-0.3,0.1-0.6,0.3-0.8s0.5-0.3,0.8-0.3h1.5c0.3,0,0.6,0.1,0.8,0.3s0.3,0.5,0.3,0.8v1.3c0.6-0.8,1.2-1.4,2-1.8
		c0.8-0.4,1.8-0.6,3-0.6L42.7,14.4L42.7,14.4z"/>
	<path class="st0" d="M58.3,14c1.5,0,2.8,0.2,4,0.7s2.1,1.1,3,1.9c0.8,0.8,1.5,1.8,2,2.9c0.5,1.1,0.8,2.4,0.9,3.7c0,0.2,0,0.5,0,0.9
		c0,0.3,0,0.7,0,1.1c0,0.4,0,0.7,0,1.1c0,0.3,0,0.6,0,0.8c-0.1,1.4-0.4,2.6-0.9,3.8c-0.5,1.1-1.1,2.1-1.9,2.9
		c-0.8,0.8-1.8,1.4-3,1.9s-2.5,0.7-4,0.7s-2.8-0.2-4-0.7s-2.1-1.1-3-1.9c-0.8-0.8-1.5-1.8-2-2.9c-0.5-1.1-0.8-2.4-0.9-3.8
		c0-0.2,0-0.5-0.1-0.8c0-0.3,0-0.7,0-1.1c0-0.4,0-0.7,0-1.1c0-0.3,0-0.6,0.1-0.9c0.1-1.3,0.4-2.6,0.9-3.7c0.5-1.1,1.1-2.1,2-2.9
		c0.8-0.8,1.8-1.4,3-1.9C55.5,14.2,56.8,14,58.3,14z M64.3,26.8c0.1-0.5,0.1-1,0.1-1.7s0-1.3-0.1-1.8c-0.1-0.8-0.3-1.6-0.5-2.3
		c-0.3-0.7-0.7-1.3-1.2-1.9c-0.5-0.5-1.1-0.9-1.8-1.2s-1.6-0.5-2.5-0.5s-1.8,0.2-2.5,0.5s-1.3,0.7-1.8,1.2s-0.9,1.1-1.2,1.9
		c-0.3,0.7-0.5,1.5-0.5,2.3c-0.1,0.5-0.1,1.1-0.1,1.8s0,1.2,0.1,1.7c0.1,0.8,0.3,1.6,0.5,2.3c0.3,0.7,0.7,1.3,1.2,1.9
		s1.1,0.9,1.8,1.2s1.6,0.5,2.5,0.5s1.8-0.2,2.5-0.5s1.3-0.7,1.8-1.2s0.9-1.1,1.2-1.9C64.1,28.4,64.2,27.7,64.3,26.8z"/>
	<path class="st0" d="M82.8,35.8c-0.4,0-0.6-0.1-0.8-0.3c-0.2-0.2-0.3-0.5-0.5-0.7l-8.2-19.1c0-0.1,0-0.2,0-0.3
		c0-0.3,0.1-0.5,0.3-0.7c0.2-0.2,0.4-0.3,0.7-0.3h1.5c0.4,0,0.7,0.1,0.9,0.3c0.2,0.2,0.4,0.4,0.4,0.7l6.4,15l6.4-15
		c0.1-0.2,0.2-0.4,0.4-0.7c0.2-0.2,0.5-0.3,0.8-0.3h1.7c0.3,0,0.5,0.1,0.7,0.3s0.3,0.4,0.3,0.7c0,0.1,0,0.2,0,0.3l-8.2,19.1
		c-0.1,0.2-0.3,0.5-0.4,0.7c-0.2,0.2-0.4,0.3-0.8,0.3H82.8z"/>
	<path class="st0" d="M98.9,23c0.1-1.3,0.4-2.4,0.9-3.5s1.1-2.1,1.9-2.9c0.8-0.8,1.8-1.5,2.9-1.9c1.1-0.5,2.4-0.7,3.7-0.7
		c1.5,0,2.8,0.2,4,0.7s2.2,1.2,3,2.1c0.8,0.9,1.5,2,1.9,3.3s0.7,2.7,0.7,4.3v1.1c0,0.3-0.1,0.6-0.3,0.8c-0.2,0.2-0.5,0.3-0.8,0.3
		h-14.2v0.2c0.1,1.9,0.6,3.3,1.7,4.3s2.4,1.5,4.1,1.5c1.5,0,2.6-0.2,3.4-0.6c0.8-0.4,1.4-0.9,1.8-1.4c0.2-0.2,0.4-0.4,0.6-0.5
		s0.4-0.1,0.7-0.1h1.2c0.3,0,0.6,0.1,0.8,0.3s0.3,0.5,0.3,0.8c-0.1,0.5-0.3,1-0.7,1.6c-0.4,0.6-0.9,1.1-1.7,1.7
		c-0.7,0.5-1.6,0.9-2.7,1.3c-1.1,0.3-2.4,0.5-3.8,0.5s-2.6-0.2-3.7-0.7s-2.1-1.1-2.9-2c-0.8-0.8-1.5-1.8-2-3
		c-0.5-1.1-0.8-2.4-0.9-3.7C98.8,25.6,98.8,24.3,98.9,23z M102.6,23.2h11.6V23c0-1.7-0.5-3-1.6-4s-2.5-1.5-4.2-1.5
		c-0.8,0-1.5,0.1-2.2,0.4c-0.7,0.3-1.3,0.6-1.8,1.1s-0.9,1.1-1.2,1.8c-0.3,0.7-0.5,1.4-0.5,2.3v0.1H102.6z"/>
	<path class="st0" d="M144.5,34.7c0,0.3-0.1,0.6-0.3,0.8s-0.5,0.3-0.8,0.3h-1.5c-0.3,0-0.6-0.1-0.8-0.3s-0.3-0.5-0.3-0.8V23.8
		c0-2.1-0.5-3.7-1.5-4.7s-2.4-1.6-4.2-1.6c-1.7,0-3.1,0.5-4.2,1.6c-1.1,1-1.6,2.6-1.6,4.7v10.9c0,0.3-0.1,0.6-0.3,0.8
		s-0.5,0.3-0.8,0.3h-1.5c-0.3,0-0.6-0.1-0.8-0.3c-0.2-0.2-0.3-0.5-0.3-0.8V15.5c0-0.3,0.1-0.6,0.3-0.8c0.2-0.2,0.5-0.3,0.8-0.3h1.5
		c0.3,0,0.6,0.1,0.8,0.3s0.3,0.5,0.3,0.8v1.3c0.5-0.7,1.3-1.3,2.3-1.9s2.4-0.9,4.1-0.9c1.3,0,2.5,0.2,3.6,0.6c1.1,0.4,2,1,2.8,1.8
		s1.4,1.8,1.8,2.9c0.4,1.2,0.7,2.4,0.7,3.9v11.5H144.5z"/>
	<path class="st0" d="M158.3,28.6c0,0.5,0,1,0.1,1.5s0.3,0.8,0.5,1.2c0.2,0.3,0.6,0.6,1.1,0.8s1,0.3,1.8,0.3h2.2
		c0.3,0,0.6,0.1,0.8,0.3s0.3,0.5,0.3,0.8v1.3c0,0.3-0.1,0.6-0.3,0.8s-0.5,0.3-0.8,0.3h-2.6c-2.4,0-4.1-0.6-5.2-1.9
		c-1.1-1.2-1.6-3-1.6-5.4V17.9h-3.1c-0.3,0-0.6-0.1-0.8-0.3s-0.3-0.5-0.3-0.8v-1.3c0-0.3,0.1-0.6,0.3-0.8s0.5-0.3,0.8-0.3h3.1V7.7
		c0-0.3,0.1-0.6,0.3-0.8c0.2-0.2,0.5-0.3,0.8-0.3h1.5c0.3,0,0.6,0.1,0.8,0.3c0.2,0.2,0.3,0.5,0.3,0.8v6.7h5.2c0.3,0,0.6,0.1,0.8,0.3
		s0.3,0.5,0.3,0.8v1.3c0,0.3-0.1,0.6-0.3,0.8s-0.5,0.3-0.8,0.3h-5.2L158.3,28.6L158.3,28.6z"/>
	<path class="st0" d="M175.9,10c0,0.3-0.1,0.6-0.3,0.8c-0.2,0.2-0.5,0.3-0.8,0.3h-2.4c-0.3,0-0.6-0.1-0.8-0.3
		c-0.2-0.2-0.3-0.5-0.3-0.8V7.6c0-0.3,0.1-0.6,0.3-0.8s0.5-0.3,0.8-0.3h2.4c0.3,0,0.6,0.1,0.8,0.3c0.2,0.2,0.3,0.5,0.3,0.8V10z
		 M175.5,34.7c0,0.3-0.1,0.6-0.3,0.8s-0.5,0.3-0.8,0.3h-1.5c-0.3,0-0.6-0.1-0.8-0.3s-0.3-0.5-0.3-0.8V15.5c0-0.3,0.1-0.6,0.3-0.8
		s0.5-0.3,0.8-0.3h1.5c0.3,0,0.6,0.1,0.8,0.3s0.3,0.5,0.3,0.8V34.7z"/>
	<path class="st0" d="M193.1,14c1.5,0,2.8,0.2,4,0.7s2.1,1.1,3,1.9c0.8,0.8,1.5,1.8,2,2.9c0.5,1.1,0.8,2.4,0.9,3.7
		c0,0.2,0,0.5,0,0.9c0,0.3,0,0.7,0,1.1c0,0.4,0,0.7,0,1.1c0,0.3,0,0.6,0,0.8c-0.1,1.4-0.4,2.6-0.9,3.8c-0.5,1.1-1.1,2.1-1.9,2.9
		c-0.8,0.8-1.8,1.4-3,1.9s-2.5,0.7-4,0.7s-2.8-0.2-4-0.7s-2.1-1.1-3-1.9c-0.8-0.8-1.5-1.8-2-2.9c-0.5-1.1-0.8-2.4-0.9-3.8
		c0-0.2,0-0.5-0.1-0.8c0-0.3,0-0.7,0-1.1c0-0.4,0-0.7,0-1.1c0-0.3,0-0.6,0.1-0.9c0.1-1.3,0.4-2.6,0.9-3.7c0.5-1.1,1.1-2.1,2-2.9
		c0.8-0.8,1.8-1.4,3-1.9C190.3,14.2,191.6,14,193.1,14z M199.1,26.8c0.1-0.5,0.1-1,0.1-1.7s0-1.3-0.1-1.8c-0.1-0.8-0.3-1.6-0.5-2.3
		c-0.3-0.7-0.7-1.3-1.2-1.9c-0.5-0.5-1.1-0.9-1.8-1.2s-1.6-0.5-2.5-0.5s-1.8,0.2-2.5,0.5s-1.3,0.7-1.8,1.2s-0.9,1.1-1.2,1.9
		c-0.3,0.7-0.5,1.5-0.5,2.3c-0.1,0.5-0.1,1.1-0.1,1.8s0,1.2,0.1,1.7c0.1,0.8,0.3,1.6,0.5,2.3c0.3,0.7,0.7,1.3,1.2,1.9
		s1.1,0.9,1.8,1.2s1.6,0.5,2.5,0.5s1.8-0.2,2.5-0.5s1.3-0.7,1.8-1.2s0.9-1.1,1.2-1.9C198.8,28.4,199,27.7,199.1,26.8z"/>
</g>
<g>
	<path class="st0" d="M3.8,52.4c-0.1,1.1-0.1,2.2-0.1,3.1c0,1,0,2,0.1,3.1c0.1,2.1,0.7,3.7,1.9,5s2.9,1.9,5.1,1.9
		c1.2,0,2.2-0.1,3-0.4c0.8-0.3,1.5-0.7,2-1.2s0.9-1,1.2-1.6c0.3-0.6,0.5-1.2,0.6-1.8c0.1-0.3,0.2-0.5,0.4-0.6
		c0.2-0.1,0.4-0.2,0.6-0.2h1.7c0.2,0,0.4,0.1,0.6,0.2c0.2,0.2,0.2,0.4,0.2,0.6c0,0.8-0.2,1.7-0.6,2.7s-1,1.9-1.8,2.7
		c-0.8,0.9-1.9,1.6-3.2,2.1c-1.3,0.6-2.9,0.9-4.7,0.9c-1.6,0-3-0.3-4.3-0.8S4.2,66.9,3.3,66c-0.9-0.9-1.6-2-2.1-3.2s-0.8-2.6-0.8-4
		c-0.1-2.2-0.1-4.4,0-6.6c0-1.4,0.3-2.8,0.8-4s1.2-2.3,2.1-3.2s2-1.6,3.2-2.1c1.3-0.5,2.7-0.8,4.3-0.8c1.9,0,3.4,0.3,4.7,0.9
		c1.3,0.6,2.4,1.3,3.2,2.1s1.4,1.8,1.8,2.7c0.4,1,0.6,1.9,0.6,2.7c0,0.2-0.1,0.4-0.2,0.6c-0.2,0.2-0.4,0.2-0.6,0.2h-1.7
		c-0.2,0-0.4-0.1-0.6-0.2c-0.2-0.1-0.3-0.3-0.4-0.6c-0.1-0.6-0.4-1.2-0.6-1.8c-0.3-0.6-0.7-1.1-1.2-1.6c-0.5-0.5-1.2-0.9-2-1.2
		s-1.8-0.4-3-0.4c-2.2,0-3.9,0.6-5.1,1.9C4.5,48.7,3.9,50.4,3.8,52.4z"/>
	<path class="st0" d="M35.8,48.9c1.3,0,2.5,0.2,3.6,0.6c1,0.4,1.9,1,2.7,1.7s1.3,1.6,1.8,2.6c0.4,1,0.7,2.1,0.8,3.4
		c0,0.2,0,0.5,0,0.8s0,0.6,0,1c0,0.3,0,0.7,0,1s0,0.6,0,0.8c-0.1,1.2-0.4,2.4-0.8,3.4c-0.4,1-1,1.9-1.7,2.6
		c-0.7,0.7-1.6,1.3-2.7,1.7s-2.2,0.6-3.6,0.6c-1.3,0-2.5-0.2-3.6-0.6c-1-0.4-1.9-1-2.7-1.7c-0.7-0.7-1.3-1.6-1.8-2.6
		c-0.4-1-0.7-2.1-0.8-3.4c0-0.2,0-0.5-0.1-0.8c0-0.3,0-0.6,0-1c0-0.3,0-0.7,0-1s0-0.6,0.1-0.8c0.1-1.2,0.4-2.3,0.8-3.4
		c0.4-1,1-1.9,1.8-2.6c0.7-0.7,1.6-1.3,2.7-1.7C33.3,49.1,34.5,48.9,35.8,48.9z M41.2,60.4c0.1-0.4,0.1-0.9,0.1-1.5s0-1.1-0.1-1.6
		c-0.1-0.7-0.2-1.4-0.5-2.1c-0.2-0.6-0.6-1.2-1-1.7s-1-0.8-1.6-1.1S36.7,52,35.8,52c-0.9,0-1.6,0.1-2.3,0.4
		c-0.6,0.3-1.2,0.6-1.6,1.1s-0.8,1-1,1.7c-0.2,0.6-0.4,1.3-0.5,2.1c0,0.4-0.1,1-0.1,1.6s0,1.1,0.1,1.5c0.1,0.7,0.2,1.4,0.5,2.1
		c0.2,0.6,0.6,1.2,1,1.7s1,0.8,1.6,1.1c0.6,0.3,1.4,0.4,2.3,0.4c0.9,0,1.6-0.1,2.3-0.4c0.6-0.3,1.2-0.6,1.6-1.1c0.4-0.5,0.8-1,1-1.7
		C41,61.9,41.2,61.2,41.2,60.4z"/>
	<path class="st0" d="M68.8,67.5c0,0.3-0.1,0.5-0.3,0.7c-0.2,0.2-0.4,0.3-0.7,0.3h-1.4c-0.3,0-0.5-0.1-0.7-0.3s-0.3-0.4-0.3-0.7
		v-9.8c0-1.9-0.5-3.3-1.4-4.3c-0.9-0.9-2.2-1.4-3.8-1.4s-2.8,0.5-3.8,1.4S55,55.8,55,57.7v9.8c0,0.3-0.1,0.5-0.3,0.7
		s-0.4,0.3-0.7,0.3h-1.4c-0.3,0-0.5-0.1-0.7-0.3s-0.3-0.4-0.3-0.7V50.2c0-0.3,0.1-0.5,0.3-0.7s0.4-0.3,0.7-0.3H54
		c0.3,0,0.5,0.1,0.7,0.3s0.3,0.4,0.3,0.7v1.2c0.5-0.6,1.2-1.2,2.1-1.7c0.9-0.5,2.1-0.8,3.7-0.8c1.2,0,2.2,0.2,3.2,0.6
		c1,0.4,1.8,0.9,2.5,1.6s1.3,1.6,1.7,2.6c0.4,1,0.6,2.2,0.6,3.5C68.8,57.2,68.8,67.5,68.8,67.5z"/>
	<path class="st0" d="M87.4,63.2c0-0.5-0.1-0.9-0.4-1.2s-0.7-0.6-1.2-0.8s-1.2-0.4-2-0.6C83,60.4,82.1,60.2,81,60
		c-2-0.4-3.4-1.1-4.2-2.1c-0.8-1-1.2-2.1-1.2-3.4c0-0.7,0.1-1.4,0.4-2.1c0.3-0.7,0.7-1.3,1.3-1.8c0.6-0.5,1.3-0.9,2.2-1.2
		c0.9-0.3,2-0.4,3.2-0.4s2.3,0.1,3.2,0.4c0.9,0.3,1.7,0.6,2.3,1c0.6,0.4,1.1,0.9,1.4,1.4s0.5,0.9,0.5,1.4c0,0.3-0.1,0.5-0.3,0.7
		c-0.2,0.2-0.5,0.3-0.7,0.3H88c-0.1,0-0.3,0-0.5-0.1s-0.4-0.2-0.6-0.4c-0.3-0.4-0.8-0.8-1.4-1.1s-1.5-0.4-2.6-0.4s-2.1,0.2-2.8,0.6
		c-0.7,0.4-1.1,1-1.1,1.7c0,0.5,0.1,0.8,0.3,1.1c0.2,0.3,0.5,0.5,1,0.7c0.4,0.2,1,0.4,1.8,0.6c0.7,0.2,1.6,0.4,2.7,0.6
		c1.1,0.2,2.1,0.6,2.9,0.9c0.8,0.4,1.4,0.8,1.9,1.3s0.8,1,1,1.6s0.3,1.2,0.3,1.8c0,0.7-0.2,1.5-0.5,2.2c-0.4,0.7-0.9,1.3-1.5,1.8
		c-0.7,0.5-1.5,0.9-2.4,1.3c-1,0.3-2,0.5-3.2,0.5s-2.3-0.1-3.2-0.4c-0.9-0.3-1.7-0.7-2.4-1.1C77,67,76.5,66.5,76.2,66
		c-0.4-0.5-0.6-1-0.6-1.4c0-0.3,0.1-0.5,0.3-0.7c0.2-0.2,0.4-0.3,0.7-0.3h1.3c0.1,0,0.3,0,0.5,0.1c0.2,0,0.4,0.2,0.6,0.4
		c0.4,0.5,0.9,1,1.6,1.3s1.6,0.4,2.7,0.4c0.5,0,1.1-0.1,1.6-0.2c0.5-0.1,1-0.3,1.4-0.5s0.7-0.5,1-0.8C87.3,63.9,87.4,63.6,87.4,63.2
		z"/>
	<path class="st0" d="M97.3,50.2c0-0.3,0.1-0.5,0.3-0.7c0.2-0.2,0.4-0.3,0.7-0.3h1.4c0.3,0,0.5,0.1,0.7,0.3s0.3,0.4,0.3,0.7V60
		c0,1.9,0.4,3.3,1.3,4.3c0.9,0.9,2.1,1.4,3.7,1.4s2.8-0.5,3.7-1.4c0.9-0.9,1.3-2.4,1.3-4.3v-9.8c0-0.3,0.1-0.5,0.3-0.7
		c0.2-0.2,0.4-0.3,0.7-0.3h1.4c0.3,0,0.5,0.1,0.7,0.3s0.3,0.4,0.3,0.7v17.3c0,0.3-0.1,0.5-0.3,0.7c-0.2,0.2-0.4,0.3-0.7,0.3h-1.4
		c-0.3,0-0.5-0.1-0.7-0.3s-0.3-0.4-0.3-0.7v-1.2c-0.5,0.6-1.1,1.2-2,1.7s-2.1,0.8-3.6,0.8c-1.2,0-2.2-0.2-3.2-0.6
		c-1-0.4-1.8-0.9-2.5-1.6c-0.7-0.7-1.2-1.6-1.6-2.6s-0.6-2.2-0.6-3.5L97.3,50.2L97.3,50.2z"/>
	<path class="st0" d="M125.3,67.5c0,0.3-0.1,0.5-0.3,0.7c-0.2,0.2-0.4,0.3-0.7,0.3h-1.4c-0.3,0-0.5-0.1-0.7-0.3s-0.3-0.4-0.3-0.7
		V43.1c0-0.3,0.1-0.5,0.3-0.7c0.2-0.2,0.4-0.3,0.7-0.3h1.4c0.3,0,0.5,0.1,0.7,0.3s0.3,0.4,0.3,0.7V67.5z"/>
	<path class="st0" d="M138.2,62c0,0.5,0,0.9,0.1,1.3c0.1,0.4,0.2,0.8,0.5,1.1c0.2,0.3,0.5,0.5,0.9,0.7s0.9,0.2,1.6,0.2h2
		c0.3,0,0.5,0.1,0.7,0.3s0.3,0.4,0.3,0.7v1.2c0,0.3-0.1,0.5-0.3,0.7s-0.4,0.3-0.7,0.3H141c-2.2,0-3.7-0.6-4.7-1.7
		c-1-1.1-1.4-2.7-1.4-4.8v-9.6H132c-0.3,0-0.5-0.1-0.7-0.3s-0.3-0.4-0.3-0.7v-1.2c0-0.3,0.1-0.5,0.3-0.7s0.4-0.3,0.7-0.3h2.7v-6.1
		c0-0.3,0.1-0.5,0.3-0.7s0.4-0.3,0.7-0.3h1.4c0.3,0,0.5,0.1,0.7,0.3s0.3,0.4,0.3,0.7v6.1h4.7c0.3,0,0.5,0.1,0.7,0.3s0.3,0.4,0.3,0.7
		v1.2c0,0.3-0.1,0.5-0.3,0.7s-0.4,0.3-0.7,0.3h-4.7V62H138.2z"/>
	<path class="st0" d="M154,45.3c0,0.3-0.1,0.5-0.3,0.7s-0.4,0.3-0.7,0.3h-2.1c-0.3,0-0.5-0.1-0.7-0.3s-0.3-0.4-0.3-0.7v-2.1
		c0-0.3,0.1-0.5,0.3-0.7s0.4-0.3,0.7-0.3h2.1c0.3,0,0.5,0.1,0.7,0.3s0.3,0.4,0.3,0.7V45.3z M153.6,67.5c0,0.3-0.1,0.5-0.3,0.7
		s-0.4,0.3-0.7,0.3h-1.4c-0.3,0-0.5-0.1-0.7-0.3s-0.3-0.4-0.3-0.7V50.2c0-0.3,0.1-0.5,0.3-0.7s0.4-0.3,0.7-0.3h1.4
		c0.3,0,0.5,0.1,0.7,0.3s0.3,0.4,0.3,0.7V67.5z"/>
	<path class="st0" d="M178.6,67.5c0,0.3-0.1,0.5-0.3,0.7s-0.4,0.3-0.7,0.3h-1.4c-0.3,0-0.5-0.1-0.7-0.3s-0.3-0.4-0.3-0.7v-9.8
		c0-1.9-0.5-3.3-1.4-4.3c-0.9-0.9-2.2-1.4-3.8-1.4s-2.8,0.5-3.8,1.4s-1.4,2.4-1.4,4.3v9.8c0,0.3-0.1,0.5-0.3,0.7s-0.4,0.3-0.7,0.3
		h-1.4c-0.3,0-0.5-0.1-0.7-0.3s-0.3-0.4-0.3-0.7V50.2c0-0.3,0.1-0.5,0.3-0.7s0.4-0.3,0.7-0.3h1.4c0.3,0,0.5,0.1,0.7,0.3
		s0.3,0.4,0.3,0.7v1.2c0.5-0.6,1.2-1.2,2.1-1.7c0.9-0.5,2.1-0.8,3.7-0.8c1.2,0,2.2,0.2,3.2,0.6c1,0.4,1.8,0.9,2.5,1.6
		c0.7,0.7,1.3,1.6,1.7,2.6s0.6,2.2,0.6,3.5L178.6,67.5L178.6,67.5z"/>
	<path class="st0" d="M185.3,57.7c0.1-1.4,0.3-2.6,0.8-3.7c0.4-1.1,1-2,1.8-2.8c0.7-0.8,1.6-1.3,2.6-1.7s2.1-0.6,3.2-0.6
		c1.5,0,2.8,0.3,3.7,0.8s1.6,1.1,2.1,1.7v-1.2c0-0.3,0.1-0.5,0.3-0.7s0.4-0.3,0.7-0.3h1.4c0.3,0,0.5,0.1,0.7,0.3s0.3,0.4,0.3,0.7v18
		c0,2.6-0.7,4.6-2.2,6.1s-3.7,2.3-6.6,2.3c-1.5,0-2.8-0.2-3.8-0.5c-1.1-0.4-1.9-0.8-2.6-1.3s-1.2-1.1-1.5-1.8
		c-0.3-0.6-0.5-1.3-0.5-1.8c0-0.3,0.1-0.5,0.3-0.7s0.5-0.3,0.7-0.3h1.1c0.3,0,0.5,0.1,0.7,0.2c0.2,0.1,0.4,0.4,0.5,0.8
		c0.1,0.1,0.2,0.3,0.4,0.6s0.4,0.5,0.8,0.8c0.4,0.3,0.8,0.5,1.4,0.7s1.3,0.3,2.2,0.3c0.8,0,1.6-0.1,2.3-0.2c0.7-0.2,1.3-0.4,1.8-0.8
		c0.5-0.4,0.9-0.9,1.2-1.5s0.4-1.4,0.4-2.3v-2.3c-0.5,0.7-1.2,1.3-2.1,1.8c-0.9,0.5-2.1,0.8-3.6,0.8c-1.2,0-2.2-0.2-3.2-0.6
		s-1.9-1-2.6-1.7c-0.7-0.8-1.3-1.7-1.8-2.8c-0.4-1.1-0.7-2.3-0.8-3.7c0-0.4,0-0.8,0-1.2C185.3,58.4,185.3,58,185.3,57.7z
		 M199.5,57.5c-0.1-1.8-0.6-3.1-1.6-4.1s-2.2-1.4-3.8-1.4s-2.9,0.5-3.9,1.6s-1.5,2.5-1.6,4.2c0,0.7,0,1.4,0,2.1
		c0.1,1.8,0.6,3.2,1.6,4.2s2.2,1.6,3.9,1.6c1.6,0,2.8-0.5,3.8-1.4c1-1,1.5-2.3,1.6-4c0-0.4,0-0.8,0-1.3
		C199.5,58.4,199.5,57.9,199.5,57.5z"/>
</g>
<g>
	<polygon class="st1" points="263.3,11.1 263.3,19.9 275.4,17 275.4,62.5 291.6,57.4 291.6,3 	"/>
	<polygon class="st2" points="244.1,28.2 244.1,39 258.5,35.2 258.5,67.2 272.9,63.2 272.9,20.7 	"/>
	<polygon class="st3" points="255.4,68 226.7,76.8 226.7,47.1 255.4,39.7 	"/>
</g>
</svg>
