<svg width="72" height="72" viewBox="0 0 72 72" fill="none" xmlns="http://www.w3.org/2000/svg" data-icon-name="countries">
<path d="M35.8147 69C31.5047 69 27.2368 68.1509 23.2549 66.5012C19.2731 64.8516 15.6552 62.4336 12.6079 59.3855C9.5607 56.3374 7.14378 52.7189 5.49523 48.7365C3.84667 44.7542 2.99879 40.4861 3 36.1761C3 27.4731 6.45725 19.1265 12.6112 12.9725C18.7652 6.81859 27.1117 3.36133 35.8147 3.36133" stroke="white" stroke-width="6" stroke-miterlimit="10"/>
<path d="M35.8149 3.37061C44.5164 3.37061 52.8615 6.8266 59.0152 12.9786C65.1689 19.1305 68.6272 27.4747 68.6297 36.1761C68.6309 40.4862 67.783 44.7543 66.1344 48.7366C64.4859 52.7189 62.069 56.3375 59.0217 59.3856C55.9745 62.4337 52.3566 64.8516 48.3747 66.5013C44.3929 68.151 40.125 69.0001 35.8149 69.0001" stroke="#FFB297" stroke-width="6" stroke-miterlimit="10"/>
<path d="M4.3457 36.1853H35.8148" stroke="white" stroke-width="6" stroke-miterlimit="10"/>
<path d="M35.8149 36.1853H67.2841" stroke="#FFB297" stroke-width="6" stroke-miterlimit="10"/>
<path d="M35.8145 69.0001C28.5826 69.0001 22.7217 54.5985 22.7217 36.8317C22.7217 19.0649 28.5826 4.66333 35.8145 4.66333" stroke="white" stroke-width="6" stroke-miterlimit="10"/>
<path d="M35.8149 4.66333C43.0468 4.66333 48.9077 19.0649 48.9077 36.8294C48.9077 54.5939 43.0468 69.0001 35.8149 69.0001" stroke="#FFB297" stroke-width="6" stroke-miterlimit="10"/>
</svg>
