<svg width="57" height="78" viewBox="0 0 57 78" fill="none" xmlns="http://www.w3.org/2000/svg" data-icon-name="members">
<path d="M28.1086 41.9822C22.9901 41.9822 18.0812 39.9489 14.4618 36.3295C10.8424 32.7101 8.80908 27.8012 8.80908 22.6826C8.80908 17.5641 10.8424 12.6552 14.4618 9.03578C18.0812 5.41641 22.9901 3.38306 28.1086 3.38306" stroke="white" stroke-width="6" stroke-miterlimit="10"/>
<path d="M28.1087 52.8889C24.8112 52.8889 21.546 53.5385 18.4995 54.8004C15.453 56.0624 12.6849 57.9121 10.3533 60.2439C8.02173 62.5758 6.17228 65.344 4.91059 68.3906C3.6489 71.4372 2.99968 74.7025 3 78.0001" stroke="white" stroke-width="6" stroke-miterlimit="10"/>
<path d="M28.1089 3.36133C33.2286 3.36133 38.1387 5.39429 41.76 9.01332C45.3813 12.6323 47.4173 17.5412 47.4205 22.6609C47.4205 25.1964 46.9209 27.707 45.9503 30.0493C44.9796 32.3916 43.5569 34.5197 41.7635 36.312C39.9701 38.1043 37.8411 39.5257 35.4982 40.4948C33.1553 41.464 30.6444 41.962 28.1089 41.9605" stroke="#FFB297" stroke-width="6" stroke-miterlimit="10"/>
<path d="M28.1089 52.8889C34.7688 52.8889 41.1559 55.5345 45.8652 60.2438C50.5744 64.9531 53.22 71.3402 53.22 78.0001" stroke="#FFB297" stroke-width="6" stroke-miterlimit="10"/>
</svg>
