<svg width="75" height="68" viewBox="0 0 75 68" fill="none" xmlns="http://www.w3.org/2000/svg" data-icon-name="partners">
<path d="M10.8589 30.3266L10.8072 30.2725C8.79561 28.2673 7.46769 25.6787 7.01239 22.8751C6.5571 20.0715 6.99762 17.1958 8.27127 14.6571C9.39824 12.4095 11.1287 10.5201 13.2689 9.20051C15.409 7.88093 17.8743 7.18331 20.3886 7.18576C22.4811 7.18604 24.5447 7.67413 26.4155 8.61131C27.7097 9.26309 28.8907 10.1185 29.9136 11.1449L36.9967 18.2233V8.57837L34.7361 6.3177C33.19 4.77202 31.4052 3.48527 29.4502 2.50678C24.6239 0.102036 19.0411 -0.290772 13.9257 1.4145C8.81032 3.11978 4.5799 6.78394 2.16202 11.6036C0.245341 15.4181 -0.420559 19.7396 0.258921 23.9541C0.9384 28.1687 2.9287 32.0619 5.94707 35.0808L36.9991 67.4737V57.6147L10.8589 30.3266Z" fill="white"/>
<path d="M68.0678 35.062C71.0799 32.0438 73.0661 28.1543 73.745 23.9446C74.4239 19.7348 73.7611 15.4181 71.8505 11.606C70.8722 9.65081 69.5854 7.86599 68.0395 6.32008C66.1548 4.42512 63.913 2.92276 61.4438 1.89995C58.9746 0.877148 56.3271 0.354218 53.6545 0.361401C50.9818 0.354218 48.3343 0.877148 45.8651 1.89995C43.3959 2.92276 41.1541 4.42512 39.2694 6.32008L37.0063 8.58076V18.2257L44.0919 11.1449C45.3446 9.88498 46.8348 8.8861 48.4763 8.2061C50.1177 7.5261 51.8778 7.1785 53.6545 7.18343C55.4311 7.17876 57.1911 7.52646 58.8325 8.20645C60.4739 8.88643 61.9642 9.88519 63.2171 11.1449C64.2434 12.1726 65.098 13.3584 65.7483 14.6571C67.0202 17.1947 67.4601 20.0685 67.0058 22.8704C66.5514 25.6723 65.2257 28.2598 63.2171 30.2654L37.0063 57.6077V67.4667L68.0678 35.062Z" fill="#FFB297"/>
</svg>
